HIERARCHY
ROOT Hips
{
	OFFSET -50.672638 -52.785297 87.293335
	CHANNELS 6 Xposition Yposition Zposition Zrotation Yrotation Xrotation
	JOINT Spine
	{
		OFFSET 0.000000 2.080109 8.814247
		CHANNELS 6 Xposition Yposition Zposition Zrotation Yrotation Xrotation
		JOINT Spine1
		{
			OFFSET 0.000000 0.000000 8.844139
			CHANNELS 6 Xposition Yposition Zposition Zrotation Yrotation Xrotation
			JOINT Spine2
			{
				OFFSET 0.000000 0.000000 11.682266
				CHANNELS 6 Xposition Yposition Zposition Zrotation Yrotation Xrotation
				JOINT Spine3
				{
					OFFSET 0.000000 0.000004 11.746689
					CHANNELS 6 Xposition Yposition Zposition Zrotation Yrotation Xrotation
					JOINT Neck
					{
						OFFSET 0.000000 0.000000 17.658264
						CHANNELS 6 Xposition Yposition Zposition Zrotation Yrotation Xrotation
						JOINT Neck1
						{
							OFFSET 0.000000 0.000000 5.101517
							CHANNELS 6 Xposition Yposition Zposition Zrotation Yrotation Xrotation
							JOINT Head
							{
								OFFSET 0.000000 0.000000 5.101517
								CHANNELS 6 Xposition Yposition Zposition Zrotation Yrotation Xrotation
								JOINT HeadEnd
								{
									OFFSET 0.000000 0.000000 11.655090
									CHANNELS 6 Xposition Yposition Zposition Zrotation Yrotation Xrotation
									End Site
									{
										OFFSET 0.000000 0.000000 0.100006
									}
								}
							}
						}
					}
					JOINT RightShoulder
					{
						OFFSET -2.625389 0.000000 11.175217
						CHANNELS 6 Xposition Yposition Zposition Zrotation Yrotation Xrotation
						JOINT RightArm
						{
							OFFSET 0.000000 0.000000 10.434708
							CHANNELS 6 Xposition Yposition Zposition Zrotation Yrotation Xrotation
							JOINT RightForeArm
							{
								OFFSET 0.000000 0.000004 29.628418
								CHANNELS 6 Xposition Yposition Zposition Zrotation Yrotation Xrotation
								JOINT RightHand
								{
									OFFSET 0.000000 0.000000 22.857605
									CHANNELS 6 Xposition Yposition Zposition Zrotation Yrotation Xrotation
									JOINT RightHandThumb1
									{
										OFFSET -2.867325 -2.944290 3.959564
										CHANNELS 6 Xposition Yposition Zposition Zrotation Yrotation Xrotation
										JOINT RightHandThumb2
										{
											OFFSET 0.000000 0.000000 3.350403
											CHANNELS 6 Xposition Yposition Zposition Zrotation Yrotation Xrotation
											JOINT RightHandThumb3
											{
												OFFSET 0.000000 0.000000 3.756516
												CHANNELS 6 Xposition Yposition Zposition Zrotation Yrotation Xrotation
												JOINT RightHandThumb4
												{
													OFFSET 0.000000 0.000000 3.147339
													CHANNELS 6 Xposition Yposition Zposition Zrotation Yrotation Xrotation
													End Site
													{
														OFFSET 0.000000 0.000000 0.100006
													}
												}
											}
										}
									}
									JOINT RightHandIndex1
									{
										OFFSET -0.086754 -2.345280 10.030899
										CHANNELS 6 Xposition Yposition Zposition Zrotation Yrotation Xrotation
										JOINT RightHandIndex2
										{
											OFFSET 0.000000 0.000000 4.061096
											CHANNELS 6 Xposition Yposition Zposition Zrotation Yrotation Xrotation
											JOINT RightHandIndex3
											{
												OFFSET 0.000000 0.000000 3.248871
												CHANNELS 6 Xposition Yposition Zposition Zrotation Yrotation Xrotation
												JOINT RightHandIndex4
												{
													OFFSET 0.000000 0.000000 2.639709
													CHANNELS 6 Xposition Yposition Zposition Zrotation Yrotation Xrotation
													End Site
													{
														OFFSET 0.000000 0.000000 0.100006
													}
												}
											}
										}
									}
									JOINT RightHandMiddle1
									{
										OFFSET 0.104103 -0.006767 9.502945
										CHANNELS 6 Xposition Yposition Zposition Zrotation Yrotation Xrotation
										JOINT RightHandMiddle2
										{
											OFFSET 0.000000 0.000000 4.568726
											CHANNELS 6 Xposition Yposition Zposition Zrotation Yrotation Xrotation
											JOINT RightHandMiddle3
											{
												OFFSET 0.000000 0.000000 3.654984
												CHANNELS 6 Xposition Yposition Zposition Zrotation Yrotation Xrotation
												JOINT RightHandMiddle4
												{
													OFFSET 0.000000 0.000000 2.741241
													CHANNELS 6 Xposition Yposition Zposition Zrotation Yrotation Xrotation
													End Site
													{
														OFFSET 0.000000 0.000000 0.100006
													}
												}
											}
										}
									}
									JOINT RightHandRing1
									{
										OFFSET 0.086754 2.267441 8.921707
										CHANNELS 6 Xposition Yposition Zposition Zrotation Yrotation Xrotation
										JOINT RightHandRing2
										{
											OFFSET 0.000000 0.000000 4.061096
											CHANNELS 6 Xposition Yposition Zposition Zrotation Yrotation Xrotation
											JOINT RightHandRing3
											{
												OFFSET 0.000000 0.000000 3.654984
												CHANNELS 6 Xposition Yposition Zposition Zrotation Yrotation Xrotation
												JOINT RightHandRing4
												{
													OFFSET 0.000000 0.000000 2.741241
													CHANNELS 6 Xposition Yposition Zposition Zrotation Yrotation Xrotation
													End Site
													{
														OFFSET 0.000000 0.000000 0.100006
													}
												}
											}
										}
									}
									JOINT RightHandPinky1
									{
										OFFSET -0.173504 4.467197 7.976990
										CHANNELS 6 Xposition Yposition Zposition Zrotation Yrotation Xrotation
										JOINT RightHandPinky2
										{
											OFFSET 0.000000 0.000000 3.350403
											CHANNELS 6 Xposition Yposition Zposition Zrotation Yrotation Xrotation
											JOINT RightHandPinky3
											{
												OFFSET 0.000000 0.000000 2.842758
												CHANNELS 6 Xposition Yposition Zposition Zrotation Yrotation Xrotation
												JOINT RightHandPinky4
												{
													OFFSET 0.000000 0.000000 2.639709
													CHANNELS 6 Xposition Yposition Zposition Zrotation Yrotation Xrotation
													End Site
													{
														OFFSET 0.000000 0.000000 0.100006
													}
												}
											}
										}
									}
									JOINT RightForeArmEnd
									{
										OFFSET 0.000000 0.000000 0.000000
										CHANNELS 6 Xposition Yposition Zposition Zrotation Yrotation Xrotation
										End Site
										{
											OFFSET 0.000000 0.000000 0.100006
										}
									}
								}
								JOINT RightArmEnd
								{
									OFFSET 0.000000 0.000000 0.000000
									CHANNELS 6 Xposition Yposition Zposition Zrotation Yrotation Xrotation
									End Site
									{
										OFFSET 0.000000 0.000000 0.100006
									}
								}
							}
						}
					}
					JOINT LeftShoulder
					{
						OFFSET 2.625389 0.000000 11.175217
						CHANNELS 6 Xposition Yposition Zposition Zrotation Yrotation Xrotation
						JOINT LeftArm
						{
							OFFSET 0.000000 0.000000 10.813629
							CHANNELS 6 Xposition Yposition Zposition Zrotation Yrotation Xrotation
							JOINT LeftForeArm
							{
								OFFSET 0.000000 0.000004 28.724777
								CHANNELS 6 Xposition Yposition Zposition Zrotation Yrotation Xrotation
								JOINT LeftHand
								{
									OFFSET 0.644382 0.328873 25.716171
									CHANNELS 6 Xposition Yposition Zposition Zrotation Yrotation Xrotation
									JOINT LeftHandThumb1
									{
										OFFSET 2.867321 -2.944290 3.959564
										CHANNELS 6 Xposition Yposition Zposition Zrotation Yrotation Xrotation
										JOINT LeftHandThumb2
										{
											OFFSET 0.000000 0.000000 3.350403
											CHANNELS 6 Xposition Yposition Zposition Zrotation Yrotation Xrotation
											JOINT LeftHandThumb3
											{
												OFFSET 0.000000 0.000000 3.756516
												CHANNELS 6 Xposition Yposition Zposition Zrotation Yrotation Xrotation
												JOINT LeftHandThumb4
												{
													OFFSET 0.000000 0.000000 3.100006
													CHANNELS 6 Xposition Yposition Zposition Zrotation Yrotation Xrotation
													End Site
													{
														OFFSET 0.000000 0.000000 0.100006
													}
												}
											}
										}
									}
									JOINT LeftHandIndex1
									{
										OFFSET 0.086754 -2.345280 10.030899
										CHANNELS 6 Xposition Yposition Zposition Zrotation Yrotation Xrotation
										JOINT LeftHandIndex2
										{
											OFFSET 0.000000 0.000000 4.061096
											CHANNELS 6 Xposition Yposition Zposition Zrotation Yrotation Xrotation
											JOINT LeftHandIndex3
											{
												OFFSET 0.000000 0.000000 3.248871
												CHANNELS 6 Xposition Yposition Zposition Zrotation Yrotation Xrotation
												JOINT LeftHandIndex4
												{
													OFFSET 0.000000 0.000000 2.639709
													CHANNELS 6 Xposition Yposition Zposition Zrotation Yrotation Xrotation
													End Site
													{
														OFFSET 0.000000 0.000000 0.100006
													}
												}
											}
										}
									}
									JOINT LeftHandMiddle1
									{
										OFFSET -0.104103 -0.006767 9.502945
										CHANNELS 6 Xposition Yposition Zposition Zrotation Yrotation Xrotation
										JOINT LeftHandMiddle2
										{
											OFFSET 0.000000 0.000000 4.568726
											CHANNELS 6 Xposition Yposition Zposition Zrotation Yrotation Xrotation
											JOINT LeftHandMiddle3
											{
												OFFSET 0.000000 0.000000 3.654984
												CHANNELS 6 Xposition Yposition Zposition Zrotation Yrotation Xrotation
												JOINT LeftHandMiddle4
												{
													OFFSET 0.000000 0.000000 2.741241
													CHANNELS 6 Xposition Yposition Zposition Zrotation Yrotation Xrotation
													End Site
													{
														OFFSET 0.000000 0.000000 0.100006
													}
												}
											}
										}
									}
									JOINT LeftHandRing1
									{
										OFFSET -0.086754 2.267441 8.921707
										CHANNELS 6 Xposition Yposition Zposition Zrotation Yrotation Xrotation
										JOINT LeftHandRing2
										{
											OFFSET 0.000000 0.000000 4.061096
											CHANNELS 6 Xposition Yposition Zposition Zrotation Yrotation Xrotation
											JOINT LeftHandRing3
											{
												OFFSET 0.000000 0.000000 3.654984
												CHANNELS 6 Xposition Yposition Zposition Zrotation Yrotation Xrotation
												JOINT LeftHandRing4
												{
													OFFSET 0.000000 0.000000 2.741241
													CHANNELS 6 Xposition Yposition Zposition Zrotation Yrotation Xrotation
													End Site
													{
														OFFSET 0.000000 0.000000 0.100006
													}
												}
											}
										}
									}
									JOINT LeftHandPinky1
									{
										OFFSET 0.173504 4.467197 7.976990
										CHANNELS 6 Xposition Yposition Zposition Zrotation Yrotation Xrotation
										JOINT LeftHandPinky2
										{
											OFFSET 0.000000 0.000000 3.350403
											CHANNELS 6 Xposition Yposition Zposition Zrotation Yrotation Xrotation
											JOINT LeftHandPinky3
											{
												OFFSET 0.000000 0.000000 2.842758
												CHANNELS 6 Xposition Yposition Zposition Zrotation Yrotation Xrotation
												JOINT LeftHandPinky4
												{
													OFFSET 0.000000 0.000000 2.639709
													CHANNELS 6 Xposition Yposition Zposition Zrotation Yrotation Xrotation
													End Site
													{
														OFFSET 0.000000 0.000000 0.100006
													}
												}
											}
										}
									}
									JOINT LeftForeArmEnd
									{
										OFFSET 0.000000 0.000000 0.000000
										CHANNELS 6 Xposition Yposition Zposition Zrotation Yrotation Xrotation
										End Site
										{
											OFFSET 0.000000 0.000000 0.100006
										}
									}
								}
								JOINT LeftArmEnd
								{
									OFFSET 0.000000 0.000000 0.000000
									CHANNELS 6 Xposition Yposition Zposition Zrotation Yrotation Xrotation
									End Site
									{
										OFFSET 0.000000 0.000000 0.100006
									}
								}
							}
						}
					}
				}
			}
		}
	}
	JOINT RightUpLeg
	{
		OFFSET -11.289944 0.000000 0.000000
		CHANNELS 6 Xposition Yposition Zposition Zrotation Yrotation Xrotation
		JOINT RightLeg
		{
			OFFSET 0.000000 -0.000004 -38.200329
			CHANNELS 6 Xposition Yposition Zposition Zrotation Yrotation Xrotation
			JOINT RightFoot
			{
				OFFSET 0.000000 -0.000004 -39.900856
				CHANNELS 6 Xposition Yposition Zposition Zrotation Yrotation Xrotation
				JOINT RightToeBase
				{
					OFFSET 0.000000 -15.261639 0.000001
					CHANNELS 6 Xposition Yposition Zposition Zrotation Yrotation Xrotation
					JOINT RightToeBaseEnd
					{
						OFFSET 0.000000 -7.370712 0.000001
						CHANNELS 6 Xposition Yposition Zposition Zrotation Yrotation Xrotation
						End Site
						{
							OFFSET 0.000000 0.000000 0.100000
						}
					}
				}
				JOINT RightLegEnd
				{
					OFFSET 0.000000 0.000000 0.000000
					CHANNELS 6 Xposition Yposition Zposition Zrotation Yrotation Xrotation
					End Site
					{
						OFFSET 0.000000 0.000000 0.100000
					}
				}
			}
			JOINT RightUpLegEnd
			{
				OFFSET 0.000000 0.000000 0.000000
				CHANNELS 6 Xposition Yposition Zposition Zrotation Yrotation Xrotation
				End Site
				{
					OFFSET 0.000000 0.000000 0.099998
				}
			}
		}
	}
	JOINT LeftUpLeg
	{
		OFFSET 11.315662 0.000000 0.000000
		CHANNELS 6 Xposition Yposition Zposition Zrotation Yrotation Xrotation
		JOINT LeftLeg
		{
			OFFSET 0.000000 -0.000004 -38.200329
			CHANNELS 6 Xposition Yposition Zposition Zrotation Yrotation Xrotation
			JOINT LeftFoot
			{
				OFFSET 0.000000 -0.000004 -39.900856
				CHANNELS 6 Xposition Yposition Zposition Zrotation Yrotation Xrotation
				JOINT LeftToeBase
				{
					OFFSET 0.000000 -15.261639 0.000001
					CHANNELS 6 Xposition Yposition Zposition Zrotation Yrotation Xrotation
					JOINT LeftToeBaseEnd
					{
						OFFSET 0.000000 -7.539993 0.000001
						CHANNELS 6 Xposition Yposition Zposition Zrotation Yrotation Xrotation
						End Site
						{
							OFFSET 0.000000 0.000000 0.100000
						}
					}
				}
				JOINT LeftLegEnd
				{
					OFFSET 0.000000 0.000000 0.000000
					CHANNELS 6 Xposition Yposition Zposition Zrotation Yrotation Xrotation
					End Site
					{
						OFFSET 0.000000 0.000000 0.100000
					}
				}
			}
			JOINT LeftUpLegEnd
			{
				OFFSET 0.000000 0.000000 0.000000
				CHANNELS 6 Xposition Yposition Zposition Zrotation Yrotation Xrotation
				End Site
				{
					OFFSET 0.000000 0.000000 0.099998
				}
			}
		}
	}
}
MOTION
Frames: 2
Frame Time: 0.016667
-85.412888 -87.967178 82.957596 63.828070 -1.784328 -9.277725 -0.000013 2.080102 8.814237 -0.978861 -3.060137 14.003438 -0.000006 0.000019 8.844145 -0.531710 -2.066071 14.898005 0.000001 -0.000010 11.682259 0.483071 0.656054 11.354382 0.000009 -0.000011 11.746700 0.502532 3.147763 1.538499 0.000000 -0.000008 17.658251 -3.131843 -6.103501 -2.923391 -0.000004 -0.000016 5.101543 -4.178946 4.638727 -15.408683 0.000002 -0.000001 5.101528 3.155964 -1.748690 -9.021739 0.000003 0.000012 11.655076 0.000000 0.000000 -0.000000 -2.625387 -0.000021 11.175220 13.787389 -80.201447 -0.373293 0.000013 -0.000012 10.434704 -74.764828 -62.860253 71.032123 -0.000014 0.000011 29.628424 19.714883 -1.012455 90.267015 0.000010 0.000000 22.857626 -20.453147 39.768592 3.025721 -2.867311 -2.944290 3.959549 31.666977 -16.919873 52.039710 -0.000012 -0.000005 3.350395 -11.909737 8.109677 -21.599227 -0.000001 -0.000023 3.756510 -7.939303 6.118358 -14.796886 0.000014 -0.000008 3.147336 0.000000 -0.000002 0.000001 -0.086724 -2.345296 10.030890 -11.105976 -12.580827 7.589379 0.000005 0.000010 4.061088 0.382170 -9.547117 1.355238 -0.000009 0.000006 3.248842 -0.114867 -9.547194 1.356304 0.000002 -0.000002 2.639709 -0.000002 -0.000000 -0.000000 0.104115 -0.006783 9.502969 -5.969640 -13.089226 2.962435 -0.000012 0.000005 4.568712 0.447466 -9.404344 0.502782 -0.000007 -0.000016 3.654993 -0.032859 -9.404313 0.499170 0.000008 -0.000002 2.741210 -0.000001 0.000000 0.000001 0.086795 2.267434 8.921699 2.367414 -12.160077 -4.067150 0.000011 -0.000001 4.061114 -0.943789 -8.828644 -0.546489 0.000001 -0.000008 3.654998 0.041132 -8.828628 -0.544163 0.000000 0.000001 2.741241 -0.000002 -0.000001 0.000000 -0.173481 4.467183 7.976998 11.106450 -8.164934 -11.131755 0.000010 -0.000012 3.350402 -1.910565 -7.291573 -1.425045 0.000003 -0.000012 2.842765 0.096218 -7.291692 -1.425977 -0.000001 -0.000009 2.639724 -0.000000 -0.000001 -0.000001 0.000025 -0.000005 -0.000034 0.000002 -0.000004 0.000000 -0.000000 -0.000001 0.000034 -0.000000 -0.000000 -0.000004 2.625400 -0.000013 11.175200 -13.658037 83.386931 -0.530082 0.000004 -0.000005 10.813623 64.794876 47.603509 59.084838 -0.000013 -0.000003 28.724810 -18.282345 0.610409 120.737923 0.644373 0.328886 25.716175 -40.815336 27.804505 13.861311 2.867315 -2.944315 3.959579 -31.604583 17.443456 51.240445 -0.000012 0.000005 3.350425 13.067135 -8.582398 -23.536834 -0.000008 -0.000019 3.756538 8.692331 -6.542689 -16.108586 -0.000000 -0.000002 3.100008 -0.000000 0.000003 0.000001 0.086769 -2.345284 10.030936 -4.912275 23.655095 0.903963 0.000003 -0.000002 4.061119 0.159490 16.373263 -2.366531 -0.000006 0.000002 3.248913 -0.340511 16.373073 -2.366529 -0.000001 -0.000006 2.639693 0.000002 -0.000000 0.000002 -0.104106 -0.006774 9.502968 0.526994 23.275176 0.380582 0.000008 0.000005 4.568737 0.371243 16.486559 -0.888728 0.000006 -0.000001 3.654989 -0.131685 16.486569 -0.889564 -0.000004 -0.000003 2.741229 -0.000001 -0.000001 -0.000003 -0.086742 2.267437 8.921734 9.320350 23.558868 1.060338 -0.000009 0.000001 4.061101 -0.841853 16.733608 1.054574 0.000002 -0.000008 3.654987 0.158229 16.733600 1.054588 0.000008 -0.000000 2.741212 0.000001 0.000001 -0.000001 0.173514 4.467200 7.977027 18.217016 22.491535 1.945651 -0.000002 -0.000006 3.350398 -1.568731 15.580030 3.108527 0.000012 0.000005 2.842763 0.430314 15.579962 3.108264 0.000006 0.000006 2.639696 0.000001 0.000001 -0.000001 0.000006 -0.000003 0.000047 -0.000001 -0.000002 -0.000003 -0.000007 0.000001 -0.000003 -0.000001 -0.000004 -0.000000 -11.289951 -0.000002 -0.000014 -4.083742 -0.274939 -7.614097 -0.000000 0.000007 -38.200314 -0.191351 0.180814 42.922210 -0.000009 -0.000006 -39.900845 -19.072953 1.533821 1.698956 0.000002 -15.261630 0.000001 -0.401598 -0.848571 -27.292591 -0.000012 -7.370706 -0.000001 0.000001 -0.000001 -0.000000 0.000006 0.000010 0.000001 -0.000002 -0.000000 0.000002 -0.000009 0.000001 0.000009 0.000004 0.000002 0.000000 11.315643 -0.000003 -0.000006 -4.353710 -14.824321 -13.891263 -0.000006 -0.000004 -38.200333 1.215139 -1.128138 42.864823 0.000011 0.000008 -39.900856 9.047267 6.029031 24.585700 0.000006 -15.261656 0.000008 0.641542 0.996491 -31.634451 0.000003 -7.539994 0.000002 0.000001 -0.000000 -0.000000 0.000004 -0.000004 0.000003 0.000000 0.000001 0.000002 0.000001 0.000009 0.000002 -0.000001 0.000002 -0.000001 
-85.364944 -87.937057 82.973511 63.579581 -1.813923 -9.269135 0.000001 2.080112 8.814263 -0.938291 -2.975227 13.985458 0.000009 0.000013 8.844136 -0.504214 -1.997304 14.865058 0.000007 -0.000009 11.682259 0.485534 0.674673 11.455866 -0.000006 0.000008 11.746700 0.516451 3.024437 1.526374 -0.000006 0.000015 17.658266 -2.388895 -5.766037 -3.119581 0.000003 0.000010 5.101532 -3.402335 4.615653 -15.340627 0.000004 0.000004 5.101542 3.200310 -1.733560 -9.011874 0.000002 -0.000004 11.655075 -0.000000 -0.000000 0.000000 -2.625409 0.000012 11.175220 13.728444 -80.065233 -0.365739 -0.000003 0.000005 10.434711 -74.569622 -62.865512 70.778983 -0.000002 -0.000002 29.628416 19.647884 -1.012565 90.179664 0.000032 0.000003 22.857611 -20.513917 39.498974 2.986915 -2.867338 -2.944277 3.959547 31.666967 -16.919898 52.039754 0.000011 -0.000021 3.350394 -11.909753 8.109659 -21.599314 0.000010 -0.000007 3.756491 -7.939292 6.118385 -14.796857 -0.000009 0.000016 3.147323 0.000001 -0.000000 0.000000 -0.086761 -2.345285 10.030891 -11.123537 -12.654799 7.685689 0.000005 0.000005 4.061108 0.382978 -9.608633 1.363737 0.000016 0.000002 3.248906 -0.114286 -9.608633 1.363293 0.000012 0.000014 2.639693 0.000003 0.000001 0.000002 0.104087 -0.006763 9.502944 -5.993834 -13.206033 3.044017 -0.000025 -0.000007 4.568750 0.447238 -9.490877 0.505303 -0.000011 -0.000004 3.654987 -0.032906 -9.490545 0.502003 0.000007 -0.000008 2.741226 0.000000 0.000001 0.000001 0.086759 2.267448 8.921679 2.332981 -12.374061 -4.000978 0.000013 -0.000006 4.061080 -0.943894 -8.976440 -0.555534 0.000011 -0.000002 3.654990 0.041306 -8.976444 -0.553317 -0.000003 -0.000002 2.741241 0.000001 -0.000000 0.000001 -0.173519 4.467196 7.976984 11.065839 -8.476307 -11.109035 0.000017 -0.000010 3.350415 -1.910668 -7.499747 -1.465517 0.000004 -0.000006 2.842779 0.096426 -7.500061 -1.466409 0.000005 0.000006 2.639724 0.000000 0.000001 0.000002 -0.000005 0.000010 -0.000033 -0.000000 -0.000002 0.000001 0.000034 -0.000001 0.000028 0.000000 0.000000 0.000003 2.625390 -0.000001 11.175217 -13.656295 83.641288 -0.499459 -0.000002 -0.000004 10.813623 64.186996 46.576658 58.926474 -0.000022 0.000013 28.724779 -18.082460 0.550124 121.884371 0.644381 0.328882 25.716171 -41.361781 30.027021 14.064638 2.867331 -2.944296 3.959568 -31.586719 17.619226 50.974579 -0.000002 0.000010 3.350461 13.456757 -8.731344 -24.185222 0.000000 -0.000009 3.756541 8.945655 -6.680276 -16.547356 -0.000000 -0.000003 3.100009 -0.000001 -0.000002 -0.000004 0.086773 -2.345273 10.030909 -4.788060 24.357851 -0.487814 -0.000003 -0.000005 4.061103 0.131573 17.007024 -2.463718 0.000003 0.000003 3.248894 -0.368426 17.007104 -2.463719 -0.000001 -0.000009 2.639710 -0.000004 0.000001 -0.000000 -0.104082 -0.006764 9.502943 0.665766 23.977521 -0.654456 -0.000004 -0.000000 4.568743 0.362280 17.030368 -0.919810 0.000003 0.000001 3.654994 -0.139483 17.030363 -0.920331 0.000010 0.000005 2.741231 -0.000001 0.000001 -0.000004 -0.086741 2.267443 8.921712 9.455384 24.145532 0.475947 -0.000000 -0.000004 4.061121 -0.837585 17.116799 1.079276 0.000008 0.000001 3.655009 0.162416 17.116901 1.079262 0.000002 0.000003 2.741224 -0.000001 -0.000002 -0.000000 0.173527 4.467200 7.977025 18.302115 22.820045 1.720520 0.000000 0.000004 3.350405 -1.564237 15.767249 3.146211 0.000003 -0.000000 2.842772 0.435768 15.767246 3.146207 -0.000006 0.000014 2.639695 -0.000001 -0.000000 -0.000001 0.000014 0.000006 0.000031 0.000005 0.000003 0.000002 0.000002 -0.000009 -0.000000 -0.000001 -0.000000 0.000000 -11.289950 0.000004 0.000015 -3.898923 -0.232623 -7.611961 -0.000005 0.000006 -38.200321 -0.191946 0.181149 42.891874 0.000001 -0.000004 -39.900856 -18.980992 1.542384 1.726163 0.000000 -15.261647 0.000004 -0.398688 -0.843642 -27.292043 -0.000005 -7.370709 0.000000 -0.000003 0.000000 0.000001 -0.000001 0.000003 0.000002 0.000001 0.000000 0.000001 0.000000 0.000002 -0.000001 -0.000000 0.000001 0.000003 11.315664 0.000007 0.000021 -4.331716 -14.788695 -13.839252 -0.000001 0.000004 -38.200321 1.218802 -1.135275 42.956573 0.000003 0.000010 -39.900848 9.174394 6.084594 24.656131 -0.000006 -15.261649 0.000012 0.619149 1.055004 -31.747259 0.000003 -7.540001 0.000002 0.000000 0.000000 0.000000 -0.000012 0.000000 0.000007 -0.000001 0.000000 0.000002 0.000001 0.000017 0.000008 -0.000001 0.000003 -0.000002 
